<svg width="18" height="24" viewBox="0 0 18 24" fill="none" xmlns="http://www.w3.org/2000/svg">
<g filter="url(#filter0_dd_1_313)">
<path d="M12.5 0H5.5C4.67285 0 4 0.672848 4 1.5V14.5C4 15.3272 4.67285 16 5.5 16H12.5C13.3272 16 14 15.3272 14 14.5V1.5C14 0.672848 13.3272 0 12.5 0ZM5.5 1H12.5C12.7759 1 13 1.22412 13 1.5V12H5V1.5C5 1.22412 5.22412 1 5.5 1ZM12.5 15H5.5C5.22412 15 5 14.7759 5 14.5V13H13V14.5C13 14.7759 12.7759 15 12.5 15Z" fill="#757575"/>
<path d="M6.35355 13.7389C6.54882 13.9213 6.54882 14.2169 6.35355 14.3992C6.15828 14.5816 5.84172 14.5816 5.64645 14.3992C5.45118 14.2169 5.45118 13.9213 5.64645 13.7389C5.84172 13.5566 6.15828 13.5566 6.35355 13.7389Z" fill="#757575"/>
</g>
<defs>
<filter id="filter0_dd_1_313" x="0" y="0" width="18" height="24" filterUnits="userSpaceOnUse" color-interpolation-filters="sRGB">
<feFlood flood-opacity="0" result="BackgroundImageFix"/>
<feColorMatrix in="SourceAlpha" type="matrix" values="0 0 0 0 0 0 0 0 0 0 0 0 0 0 0 0 0 0 127 0" result="hardAlpha"/>
<feOffset dy="4"/>
<feGaussianBlur stdDeviation="2"/>
<feComposite in2="hardAlpha" operator="out"/>
<feColorMatrix type="matrix" values="0 0 0 0 0 0 0 0 0 0 0 0 0 0 0 0 0 0 0.25 0"/>
<feBlend mode="normal" in2="BackgroundImageFix" result="effect1_dropShadow_1_313"/>
<feColorMatrix in="SourceAlpha" type="matrix" values="0 0 0 0 0 0 0 0 0 0 0 0 0 0 0 0 0 0 127 0" result="hardAlpha"/>
<feOffset dy="4"/>
<feGaussianBlur stdDeviation="2"/>
<feComposite in2="hardAlpha" operator="out"/>
<feColorMatrix type="matrix" values="0 0 0 0 0 0 0 0 0 0 0 0 0 0 0 0 0 0 0.25 0"/>
<feBlend mode="normal" in2="effect1_dropShadow_1_313" result="effect2_dropShadow_1_313"/>
<feBlend mode="normal" in="SourceGraphic" in2="effect2_dropShadow_1_313" result="shape"/>
</filter>
</defs>
</svg>
